<?xml version="1.0" encoding="UTF-8" standalone="no"?>
<!-- Created with Inkscape (http://www.inkscape.org/) -->

<svg
   width="140mm"
   height="140mm"
   viewBox="0 0 140 140"
   version="1.1"
   id="svg5"
   inkscape:version="1.2.1 (9c6d41e410, 2022-07-14)"
   sodipodi:docname="logo.svg"
   xmlns:inkscape="http://www.inkscape.org/namespaces/inkscape"
   xmlns:sodipodi="http://sodipodi.sourceforge.net/DTD/sodipodi-0.dtd"
   xmlns="http://www.w3.org/2000/svg"
   xmlns:svg="http://www.w3.org/2000/svg">
  <sodipodi:namedview
     id="namedview7"
     pagecolor="#ffffff"
     bordercolor="#000000"
     borderopacity="0.25"
     inkscape:showpageshadow="2"
     inkscape:pageopacity="0.0"
     inkscape:pagecheckerboard="0"
     inkscape:deskcolor="#d1d1d1"
     inkscape:document-units="mm"
     showgrid="false"
     inkscape:zoom="0.5"
     inkscape:cx="145"
     inkscape:cy="491"
     inkscape:window-width="1920"
     inkscape:window-height="991"
     inkscape:window-x="-9"
     inkscape:window-y="-9"
     inkscape:window-maximized="1"
     inkscape:current-layer="layer1" />
  <defs
     id="defs2" />
  <g
     inkscape:groupmode="layer"
     id="layer3"
     inkscape:label="Lager 2">
    <path
       id="path5909"
       style="fill:#caecec;fill-opacity:1;stroke-width:0.264583"
       d="M 138.03489,86.838065 A 69.447762,69.447762 0 0 0 139.7924,71.322735 69.447762,69.447762 0 0 0 70.344974,1.8752955 69.447762,69.447762 0 0 0 0.89700367,71.322735 69.447762,69.447762 0 0 0 2.6565837,86.838065 Z" />
  </g>
  <g
     inkscape:label="Lager 1"
     inkscape:groupmode="layer"
     id="layer1">
    <path
       id="path4658"
       style="fill:#b3b3b3;stroke-width:0.264583"
       d="M 2.3933127,55.684005 A 69.447762,69.447762 0 0 0 0.63579767,71.199335 69.447762,69.447762 0 0 0 70.083234,140.64678 69.447762,69.447762 0 0 0 139.53119,71.199335 69.447762,69.447762 0 0 0 137.77161,55.684005 Z" />
    <path
       sodipodi:type="star"
       style="fill:#b3b3b3;fill-opacity:1;stroke-width:0.264583"
       id="path5832"
       inkscape:flatsided="false"
       sodipodi:sides="3"
       sodipodi:cx="71.664185"
       sodipodi:cy="91.981346"
       sodipodi:r1="18.95509"
       sodipodi:r2="9.4775448"
       sodipodi:arg1="2.6179939"
       sodipodi:arg2="3.6651914"
       inkscape:rounded="0"
       inkscape:randomized="0"
       d="m 55.248595,101.45889 8.207795,-14.216316 8.207795,-14.216317 8.207794,14.216316 8.207794,14.216317 -16.415588,0 z"
       inkscape:transform-center-y="-4.7387734"
       transform="translate(-52.927884,-45.423997)" />
    <path
       sodipodi:type="star"
       style="fill:#b3b3b3;fill-opacity:1;stroke-width:0.264583"
       id="path5834"
       inkscape:flatsided="false"
       sodipodi:sides="3"
       sodipodi:cx="86.070892"
       sodipodi:cy="73.8806"
       sodipodi:r1="27.270847"
       sodipodi:r2="13.635424"
       sodipodi:arg1="2.6179939"
       sodipodi:arg2="3.6651914"
       inkscape:rounded="0"
       inkscape:randomized="0"
       d="m 62.453645,87.516023 11.808624,-20.453135 11.808624,-20.453135 11.808622,20.453135 11.808625,20.453136 -23.617247,0 z"
       inkscape:transform-center-x="1.0843577e-06"
       inkscape:transform-center-y="-6.817713"
       transform="translate(-48.864452,-27.341814)" />
    <path
       sodipodi:type="star"
       style="fill:#b3b3b3;fill-opacity:1;stroke-width:0.264583"
       id="path5836"
       inkscape:flatsided="false"
       sodipodi:sides="3"
       sodipodi:cx="96.044769"
       sodipodi:cy="111.19029"
       sodipodi:r1="11.40971"
       sodipodi:r2="5.704855"
       sodipodi:arg1="2.6179939"
       sodipodi:arg2="3.6651914"
       inkscape:rounded="0"
       inkscape:randomized="0"
       d="m 86.163671,116.89515 4.940549,-8.55728 4.94055,-8.557288 4.94055,8.557278 4.94055,8.55729 -9.881101,0 z"
       inkscape:transform-center-x="2.244018e-06"
       inkscape:transform-center-y="-5.1919824"
       transform="matrix(1.8224658,0,0,1.8201969,-109.75724,-153.5099)" />
    <path
       sodipodi:type="star"
       style="fill:#b3b3b3;fill-opacity:1;stroke-width:0.264583"
       id="path5838"
       inkscape:flatsided="false"
       sodipodi:sides="3"
       sodipodi:cx="102.69403"
       sodipodi:cy="113.03731"
       sodipodi:r1="45.073219"
       sodipodi:r2="22.53661"
       sodipodi:arg1="-1.5707963"
       sodipodi:arg2="-0.52359878"
       inkscape:rounded="0"
       inkscape:randomized="0"
       d="m 102.69403,67.964088 19.51728,33.804912 19.51727,33.80492 -39.03455,0 -39.034553,0 19.517277,-33.80492 z"
       inkscape:transform-center-x="1.293783e-06"
       inkscape:transform-center-y="-11.268306"
       transform="translate(-12.662959,-59.11047)" />
    <path
       sodipodi:type="star"
       style="fill:#b3b3b3;fill-opacity:1;stroke-width:0.264583"
       id="path5842"
       inkscape:flatsided="false"
       sodipodi:sides="3"
       sodipodi:cx="164.38432"
       sodipodi:cy="90.134331"
       sodipodi:r1="15.532506"
       sodipodi:r2="7.766253"
       sodipodi:arg1="2.6179939"
       sodipodi:arg2="3.6651914"
       inkscape:rounded="0"
       inkscape:randomized="0"
       d="m 150.93278,97.900583 6.72577,-11.649379 6.72577,-11.649379 6.72578,11.649379 6.72577,11.64938 -13.45155,0 z"
       inkscape:transform-center-x="2.0709836e-06"
       inkscape:transform-center-y="-3.8831276"
       transform="translate(-39.99878,-42.09937)" />
    <path
       sodipodi:type="star"
       style="fill:#ffffff;fill-opacity:0.798283;stroke-width:0.264583"
       id="path6696"
       inkscape:flatsided="false"
       sodipodi:sides="3"
       sodipodi:cx="127.20798"
       sodipodi:cy="77.056168"
       sodipodi:r1="10.886426"
       sodipodi:r2="5.443213"
       sodipodi:arg1="2.6179939"
       sodipodi:arg2="3.6651914"
       inkscape:rounded="0"
       inkscape:randomized="0"
       d="m 117.78006,82.49938 4.71396,-8.164819 4.71396,-8.164819 4.71396,8.164819 4.71396,8.16482 -9.42792,0 z"
       inkscape:transform-center-y="-2.0052686"
       transform="matrix(0.73679566,0,0,0.73679566,-3.6924683,-40.694295)" />
    <path
       sodipodi:type="star"
       style="fill:#ffffff;fill-opacity:0.798283;stroke-width:0.264583"
       id="path7476"
       inkscape:flatsided="false"
       sodipodi:sides="3"
       sodipodi:cx="77.83979"
       sodipodi:cy="76.011337"
       sodipodi:r1="4.1300507"
       sodipodi:r2="2.0650253"
       sodipodi:arg1="0.52359878"
       sodipodi:arg2="1.5707963"
       inkscape:rounded="0"
       inkscape:randomized="0"
       d="m 81.416519,78.076363 -3.576729,0 -3.576728,0 1.788364,-3.097538 1.788364,-3.097538 1.788365,3.097538 z"
       inkscape:transform-center-y="-1.0325137"
       transform="translate(-40.569856,-52.755706)" />
    <path
       sodipodi:type="star"
       style="fill:#ffffff;fill-opacity:0.798283;stroke-width:0.264583"
       id="path7482"
       inkscape:flatsided="false"
       sodipodi:sides="3"
       sodipodi:cx="124.3347"
       sodipodi:cy="109.18468"
       sodipodi:r1="3.7671862"
       sodipodi:r2="1.8835931"
       sodipodi:arg1="2.6179939"
       sodipodi:arg2="3.6651914"
       inkscape:rounded="0"
       inkscape:randomized="0"
       d="m 121.07222,111.06827 1.63124,-2.82539 1.63124,-2.82539 1.63124,2.82539 1.63124,2.82539 -3.26248,0 z"
       inkscape:transform-center-x="5.7096141e-06"
       inkscape:transform-center-y="-0.91101778"
       transform="matrix(0.94787974,0,0,0.96731394,6.5429017,-69.846496)" />
    <path
       sodipodi:type="star"
       style="fill:#ffffff;fill-opacity:0.798283;stroke-width:0.264583"
       id="path7650"
       inkscape:flatsided="false"
       sodipodi:sides="3"
       sodipodi:cx="57.988033"
       sodipodi:cy="86.98204"
       sodipodi:r1="3.6288085"
       sodipodi:r2="1.8144042"
       sodipodi:arg1="2.6179939"
       sodipodi:arg2="3.6651914"
       inkscape:rounded="0"
       inkscape:randomized="0"
       d="m 54.845393,88.796445 1.57132,-2.721607 1.57132,-2.721606 1.57132,2.721606 1.571321,2.721607 -3.142641,0 z"
       inkscape:transform-center-y="-0.90720322"
       transform="translate(-39.271741,-55.774077)" />
    <path
       sodipodi:type="star"
       style="fill:#ffffff;fill-opacity:0.798283;stroke-width:0.264583"
       id="path7652"
       inkscape:flatsided="false"
       sodipodi:sides="3"
       sodipodi:cx="125.11832"
       sodipodi:cy="97.822151"
       sodipodi:r1="3.4775913"
       sodipodi:r2="1.7387955"
       sodipodi:arg1="2.6179939"
       sodipodi:arg2="3.6651914"
       inkscape:rounded="0"
       inkscape:randomized="0"
       d="m 122.10663,99.560947 1.50585,-2.608194 1.50584,-2.608193 1.50584,2.608193 1.50584,2.608194 -3.01168,0 z"
       inkscape:transform-center-x="1.5762938e-06"
       inkscape:transform-center-y="-0.86939902"
       transform="translate(-59.768596,-66.469093)" />
    <rect
       style="fill:#64381b;fill-opacity:1"
       id="rect7818"
       width="15.672441"
       height="31.344883"
       x="62.425476"
       y="108.89339" />
    <path
       sodipodi:type="star"
       style="fill:#008000;fill-opacity:1;stroke-width:0.264583"
       id="path7924"
       inkscape:flatsided="false"
       sodipodi:sides="3"
       sodipodi:cx="118.58814"
       sodipodi:cy="140.00713"
       sodipodi:r1="29.937597"
       sodipodi:r2="14.9688"
       sodipodi:arg1="2.6179939"
       sodipodi:arg2="3.6651914"
       inkscape:rounded="0"
       inkscape:randomized="0"
       d="m 92.661422,154.97592 12.963358,-22.45319 12.96336,-22.4532 12.96336,22.4532 12.96336,22.4532 -25.92672,0 z"
       inkscape:transform-center-x="1.4940238e-06"
       inkscape:transform-center-y="-7.4844013"
       transform="translate(-48.791135,-37.475077)" />
    <path
       sodipodi:type="star"
       style="fill:#008000;fill-opacity:1;stroke-width:0.264583"
       id="path7928"
       inkscape:flatsided="false"
       sodipodi:sides="3"
       sodipodi:cx="109.18468"
       sodipodi:cy="116.23728"
       sodipodi:r1="21.415817"
       sodipodi:r2="10.70791"
       sodipodi:arg1="2.6179939"
       sodipodi:arg2="3.6651914"
       inkscape:rounded="0"
       inkscape:randomized="0"
       d="m 90.638035,126.94519 9.27332,-16.06186 9.273325,-16.061865 9.27332,16.061865 9.27332,16.06186 -18.54664,0 z"
       inkscape:transform-center-x="1.3755549e-06"
       inkscape:transform-center-y="-5.3539552"
       transform="translate(-39.648878,-35.385418)" />
    <path
       sodipodi:type="star"
       style="fill:#008000;fill-opacity:1;stroke-width:0.264583"
       id="path7930"
       inkscape:flatsided="false"
       sodipodi:sides="3"
       sodipodi:cx="114.40882"
       sodipodi:cy="111.53554"
       sodipodi:r1="11.379771"
       sodipodi:r2="5.6898861"
       sodipodi:arg1="2.6179939"
       sodipodi:arg2="3.6651914"
       inkscape:rounded="0"
       inkscape:randomized="0"
       d="m 104.55365,117.22542 4.92759,-8.53483 4.92758,-8.53482 4.92759,8.53482 4.92758,8.53483 -9.85517,0 z"
       inkscape:transform-center-x="1.4413709e-06"
       inkscape:transform-center-y="-2.8449436"
       transform="translate(-44.873025,-50.535444)" />
    <path
       style="fill:#64381b;fill-opacity:1;stroke-width:0.00288597"
       d="m 66.760124,140.56599 c -0.39888,-0.0203 -0.51148,-0.0264 -0.77199,-0.0417 -0.93682,-0.0549 -1.94426,-0.13548 -2.88597,-0.23088 -0.194414,-0.0197 -0.499727,-0.0517 -0.505038,-0.053 -0.0024,-5.3e-4 0.955728,-0.001 2.129118,-0.001 l 2.13345,-2.7e-4 v 0.16594 0.16595 l -0.0123,-2.7e-4 c -0.007,-2.2e-4 -0.046,-0.002 -0.0873,-0.004 z"
       id="path8504" />
    <path
       style="fill:#64381b;fill-opacity:1;stroke-width:0.264583"
       d="m 68.786234,140.6277 c -0.7052,-0.0144 -1.56689,-0.0431 -1.78355,-0.0593 l -0.13469,-0.0101 v -0.15315 -0.15317 h 5.18606 c 2.85233,0 5.18189,0.004 5.17681,0.009 -0.0339,0.0339 -2.07413,0.20114 -3.2613,0.26731 -1.65945,0.0925 -3.64796,0.13051 -5.18333,0.0991 z"
       id="path8506" />
    <path
       style="fill:#64381b;fill-opacity:1;stroke-width:0.00103353"
       d="m 75.324774,140.44307 c 0,-0.004 2.7e-4,-0.005 0.002,-0.005 0.005,0 0.25323,-0.019 0.40625,-0.0311 0.85226,-0.0671 1.45297,-0.12504 1.495,-0.14417 l 0.004,-0.002 -0.009,-7.9e-4 c -0.0251,-0.002 -0.56886,-0.004 -1.21698,-0.006 -0.18559,-2.6e-4 -0.41477,-7.9e-4 -0.50927,-0.001 l -0.17182,-5.3e-4 v -0.007 -0.007 l 1.13249,1.4e-4 c 0.62286,8e-5 1.13155,2.7e-4 1.13042,5.3e-4 -0.004,8e-4 -0.2081,0.0224 -0.32866,0.035 -0.50377,0.0524 -1.0308,0.10124 -1.53325,0.14212 -0.15623,0.0127 -0.39095,0.0311 -0.39747,0.0311 -0.003,0 -0.004,-5e-5 -0.004,-0.005 z"
       id="path8508" />
    <path
       style="fill:#64381b;fill-opacity:1;stroke-width:0.00390625"
       d=""
       id="path8510"
       transform="scale(0.26458333)" />
    <path
       style="fill:#64381b;fill-opacity:1;stroke-width:0.00390625"
       d=""
       id="path8512"
       transform="scale(0.26458333)" />
    <path
       style="fill:#64381b;fill-opacity:1;stroke-width:0.00103353"
       d="m 75.324774,140.3458 v -0.0916 l 0.22557,5.3e-4 c 0.12406,2.7e-4 0.35626,8e-4 0.51599,0.001 0.61064,0.001 1.1351,0.004 1.15496,0.005 0.009,7.9e-4 0.008,0.001 -0.006,0.004 -0.1155,0.0257 -0.85168,0.0932 -1.79702,0.16484 -0.049,0.004 -0.09,0.007 -0.0912,0.007 h -0.002 z"
       id="path8514" />
    <path
       style="fill:#64381b;fill-opacity:1;stroke-width:0.00103353"
       d="m 75.324774,140.3458 v -0.0916 l 0.22557,5.3e-4 c 0.12406,2.7e-4 0.35649,8e-4 0.51651,0.001 0.61019,0.001 1.13462,0.004 1.15444,0.005 0.009,7.9e-4 0.008,0.001 -0.006,0.004 -0.1155,0.0257 -0.85168,0.0932 -1.79702,0.16484 -0.049,0.004 -0.09,0.007 -0.0912,0.007 h -0.002 z"
       id="path8516" />
    <path
       style="fill:#64381b;fill-opacity:1;stroke-width:0.00103353"
       d="m 75.324774,140.34592 v -0.0915 h 0.0406 c 0.12242,1e-5 1.0363,0.002 1.29734,0.003 0.32276,0.001 0.55127,0.003 0.56066,0.004 0.007,7.9e-4 0.006,0.001 -0.008,0.004 -0.11543,0.0257 -0.85231,0.0933 -1.79702,0.16483 -0.049,0.004 -0.09,0.007 -0.0912,0.007 h -0.002 z"
       id="path8518" />
    <path
       style="fill:#64381b;fill-opacity:1;stroke-width:0.00103353"
       d="m 75.324774,140.34577 v -0.0916 l 0.2881,7.9e-4 c 0.15845,2.7e-4 0.39762,8e-4 0.53149,10e-4 0.59779,0.001 1.06853,0.004 1.08001,0.005 0.004,5.3e-4 0.004,7.9e-4 0.002,0.002 -0.055,0.0204 -0.69374,0.0812 -1.57202,0.14962 -0.15005,0.0117 -0.32342,0.0249 -0.3276,0.0249 -0.002,0 -0.002,-2.4e-4 -0.002,-0.0916 z"
       id="path8520" />
    <path
       style="fill:#64381b;fill-opacity:1;stroke-width:0.00103353"
       d="m 77.193134,140.25997 c 8e-4,-2.7e-4 0.002,-2.7e-4 0.003,0 7.9e-4,2.6e-4 1.3e-4,5.3e-4 -0.001,5.3e-4 -10e-4,0 -0.002,-2.4e-4 -10e-4,-5.3e-4 z"
       id="path8522" />
    <path
       style="fill:#64381b;fill-opacity:1;stroke-width:0.00146163"
       d="m 73.315734,140.25182 -0.87296,-2.6e-4 v -0.007 -0.007 h 1.44044 1.44044 v 0.007 0.007 l -0.56748,-2.7e-4 c -0.31211,-2e-4 -0.96031,-5.3e-4 -1.44044,-7.9e-4 z"
       id="path8524" />
    <path
       style="fill:#64381b;fill-opacity:1;stroke-width:0.00146163"
       d="m 72.442774,140.60169 v -0.005 l 0.0164,-8e-4 c 0.009,-5.3e-4 0.0566,-0.002 0.10561,-0.004 0.35194,-0.0117 0.79875,-0.0309 1.17588,-0.0504 0.45146,-0.0234 0.83704,-0.0482 1.51059,-0.0971 0.033,-0.002 0.0627,-0.005 0.0661,-0.005 0.006,-8e-4 0.006,-8e-4 0.006,0.004 v 0.005 l -0.0639,0.005 c -0.77671,0.0578 -1.52847,0.10148 -2.2922,0.13321 -0.17374,0.007 -0.42116,0.0166 -0.48599,0.0183 -0.0177,5.3e-4 -0.0336,0.001 -0.0354,0.002 -0.003,5.3e-4 -0.003,8e-5 -0.003,-0.004 z"
       id="path8526" />
  </g>
</svg>
